PathFileType	4	(X/Y/Z)	Kaydara																																																																																																																									
DataRate	CameraRate	NumFrames	NumMarkers	Units	OrigDataRate	OrigDataStartFrame	OrigNumFrames																																																																																																																					
30	30	4	41	mm	30	81	104																																																																																																																					
Frame#	Time	EMLA_LFHD			EMLA_RFHD			EMLA_LBHD			EMLA_RBHD			EMLA_LFTShould			EMLA_RFTShould			EMLA_LRRShould			EMLA_RRRShould			EMLA_T10			EMLA_STRN			EMLA_TRUN			EMLA_LSHO			EMLA_LUPA			EMLA_LELB			EMLA_LFRM			EMLA_LWRA			EMLA_LWRB			EMLA_LFIN			EMLA_RSHO			EMLA_RUPA			EMLA_RELB			EMLA_RFRM			EMLA_RWRA			EMLA_RWRB			EMLA_RFIN			EMLA_LFWT			EMLA_RFWT			EMLA_LBWT			EMLA_RBWT			EMLA_LTHI			EMLA_LKNE			EMLA_LSHN			EMLA_LANK			EMLA_LHEE			EMLA_LTOE			EMLA_RTHI			EMLA_RKNE			EMLA_RSHN			EMLA_RANK			EMLA_RHEE			EMLA_RTOE		
		X1	Y1	Z1	X2	Y2	Z2	X3	Y3	Z3	X4	Y4	Z4	X5	Y5	Z5	X6	Y6	Z6	X7	Y7	Z7	X8	Y8	Z8	X9	Y9	Z9	X10	Y10	Z10	X11	Y11	Z11	X12	Y12	Z12	X13	Y13	Z13	X14	Y14	Z14	X15	Y15	Z15	X16	Y16	Z16	X17	Y17	Z17	X18	Y18	Z18	X19	Y19	Z19	X20	Y20	Z20	X21	Y21	Z21	X22	Y22	Z22	X23	Y23	Z23	X24	Y24	Z24	X25	Y25	Z25	X26	Y26	Z26	X27	Y27	Z27	X28	Y28	Z28	X29	Y29	Z29	X30	Y30	Z30	X31	Y31	Z31	X32	Y32	Z32	X33	Y33	Z33	X34	Y34	Z34	X35	Y35	Z35	X36	Y36	Z36	X37	Y37	Z37	X38	Y38	Z38	X39	Y39	Z39	X40	Y40	Z40	X41	Y41	Z41
																																																																																																																												
66	2.667	267.05805	1582.86789	-73.23741	98.20391	1558.74832	-84.1522	285.52496	1608.04016	-220.50531	92.77006	1584.02527	-234.72647	276.11404	1361.16974	-170.53442	130.22357	1356.72867	-180.4883	285.60501	1432.81952	-303.87472	131.20583	1429.29092	-317.98567	224.31402	1273.69049	-389.86904	200.08013	1285.59097	-150.16603	194.43787	1180.55298	-152.73359	405.31113	1384.58466	-204.70123	477.8389	1219.71222	-246.90573	512.24815	1081.26923	-275.30016	509.35139	938.27499	-281.23362	409.94556	795.20378	-216.16898	472.06676	776.59615	-272.77313	459.0176	740.4921	-212.99316	15.17554	1398.92593	-250.59439	-56.61908	1221.8293	-308.48825	-79.97375	1094.16611	-369.29626	-92.07551	998.98247	-405.10098	-59.9658	807.35016	-345.97404	-99.69133	815.50873	-424.5414	-120.57409	770.81894	-378.66177	314.76234	958.7986	-227.79266	80.89921	953.66089	-260.5971	302.1312	1000.69031	-427.79697	126.93407	992.24876	-439.10866	350.04669	709.61403	-425.12966	327.23972	499.80724	-403.13091	286.68512	317.77609	-413.13015	286.08509	147.06077	-496.57978	223.64021	76.58088	-572.87651	231.58154	55.06503	-374.21688	74.97353	677.4189	-344.53869	45.25425	522.08679	-187.24182	113.67226	300.89567	-230.0005	102.92563	172.20074	-364.50333	172.92412	143.63433	-418.86158	105.31408	66.332	-249.47252
67	2.7	262.77065	1572.72919	-4.07021	94.65321	1545.392	-17.01105	282.69909	1598.82294	-151.08606	90.4891	1570.89279	-167.59342	275.85392	1352.45224	-101.44333	130.64781	1344.5314	-113.3441	287.41817	1421.71005	-234.70402	133.2401	1416.99448	-250.74701	227.96276	1260.89577	-320.98919	200.79762	1274.56848	-81.72194	196.19198	1169.5253	-83.71659	406.01784	1376.54617	-133.47351	484.1394	1210.95642	-168.91418	521.67877	1072.27028	-191.48258	511.00243	928.35007	-186.53791	398.50166	798.63014	-114.5958	461.26251	770.98091	-165.95867	442.86674	740.76401	-104.99544	16.77116	1385.85663	-184.77945	-54.79903	1210.20851	-246.97989	-78.39173	1084.63272	-311.37295	-90.01107	989.356	-348.34541	-56.98328	797.86575	-289.73988	-95.82924	805.94177	-368.90137	-116.8857	760.82657	-323.75282	319.17938	945.88524	-161.01919	84.24123	943.82256	-184.58836	301.24283	989.81529	-360.24773	125.44391	981.63719	-364.70165	349.71169	712.76848	-382.03873	330.14244	499.87312	-377.6585	290.61939	319.63348	-397.36259	287.70136	153.84705	-491.10443	224.4208	87.30187	-569.72969	232.38327	54.57776	-373.32146	68.22692	670.18478	-258.03888	54.0846	520.77057	-92.17293	114.34502	292.13856	-81.02399	94.02109	130.15019	-170.26928	162.36034	85.01196	-218.33689	100.30868	64.85238	-30.66469
68	2.733	259.62454	1558.00339	66.74797	92.31551	1528.31741	51.8246	280.8902	1582.76413	-80.32884	89.44397	1552.21573	-98.6164	277.47137	1330.14603	-29.06263	130.54815	1321.98868	-43.59897	288.6891	1406.54922	-162.98311	134.20996	1400.15289	-180.00057	230.13697	1244.2762	-252.09215	201.78572	1254.52721	-12.58505	198.62078	1149.51645	-14.92484	406.59428	1361.42105	-60.57271	489.80938	1195.39009	-90.07982	531.43997	1056.70265	-106.4885	512.37087	913.89061	-91.77622	388.88523	798.46428	-15.17449	450.85182	762.09778	-61.97172	428.21548	738.48557	0.48875	17.74764	1366.73462	-115.88396	-53.19946	1192.07047	-182.68444	-77.63263	1068.79486	-250.2692	-88.8435	973.86986	-288.19141	-53.79888	782.46078	-231.39061	-93.3941	790.86357	-310.68344	-113.35474	744.98169	-265.5969	325.73963	933.41232	-97.14009	90.33389	923.98842	-104.38591	292.721	978.72017	-294.80042	117.42459	964.03313	-287.86606	346.13605	713.07167	-333.52314	331.33503	498.3136	-340.69839	291.80376	319.84056	-373.41335	287.47244	161.82594	-480.05436	223.35066	102.6057	-563.22384	232.6689	54.11936	-371.45424	76.35871	655.60936	-170.73748	57.59141	507.02019	-7.94995	112.91052	289.15071	59.26745	90.89422	108.67238	22.17574	158.8518	52.80954	-11.75326	98.05311	82.62233	176.55518
69	2.767	257.03825	1542.02759	140.41337	90.20211	1511.01257	124.35995	279.63282	1564.65927	-6.80089	88.61149	1532.45758	-26.43537	278.29332	1308.46451	44.03055	130.34638	1299.94293	29.31517	288.06526	1391.42487	-88.08977	134.03288	1383.15857	-105.4856	230.24057	1229.28719	-180.94139	202.98784	1232.32605	59.93571	201.6275	1127.4469	56.29878	405.97736	1345.28885	13.51254	493.04691	1178.53111	-8.96637	537.86957	1041.24023	-18.75275	513.09082	900.46181	3.0633	381.90197	796.54495	80.96786	443.43884	753.73756	39.14279	417.63451	735.79758	102.12643	17.92837	1346.98944	-44.1587	-51.08439	1173.20351	-116.0645	-76.80725	1051.92177	-185.80542	-87.47894	957.0916	-223.81371	-50.59067	766.05759	-167.62804	-91.03556	774.58412	-246.44293	-109.72694	728.08205	-202.00344	332.32502	921.21399	-30.95946	97.99075	905.11742	-22.92854	279.74567	963.81836	-226.92904	107.36302	942.37267	-208.68053	339.7139	714.1861	-277.6125	335.52059	500.30495	-301.42344	296.7054	321.75762	-345.7341	289.11852	174.55379	-466.53843	224.07911	122.53714	-552.99412	233.63199	53.90713	-368.95779	83.53918	627.37896	-96.19459	63.56586	482.64671	71.97188	113.4873	291.82949	182.76915	91.61529	108.36459	186.22652	161.04239	47.30598	166.95246	98.04167	113.06551	346.37913
